<svg width="169" height="42" viewBox="0 0 169 42" fill="none" xmlns="http://www.w3.org/2000/svg">
<rect width="169" height="42" fill="#4285F4"/>
<rect x="2" y="2" width="38" height="38" rx="8" fill="white"/>
<path fill-rule="evenodd" clip-rule="evenodd" d="M29.64 21.2046C29.64 20.5664 29.5827 19.9527 29.4764 19.3636H21V22.845H25.8436C25.635 23.97 25.0009 24.9232 24.0477 25.5614V27.8196H26.9564C28.6582 26.2527 29.64 23.9455 29.64 21.2046Z" fill="#4285F4"/>
<path fill-rule="evenodd" clip-rule="evenodd" d="M21 30C23.43 30 25.4673 29.1941 26.9564 27.8196L24.0477 25.5614C23.2418 26.1014 22.2109 26.4205 21 26.4205C18.6559 26.4205 16.6718 24.8373 15.9641 22.71H12.9573V25.0418C14.4382 27.9832 17.4818 30 21 30Z" fill="#34A853"/>
<path fill-rule="evenodd" clip-rule="evenodd" d="M15.9641 22.71C15.7841 22.17 15.6818 21.5932 15.6818 21C15.6818 20.4068 15.7841 19.83 15.9641 19.29V16.9582H12.9573C12.3477 18.1732 12 19.5477 12 21C12 22.4523 12.3477 23.8268 12.9573 25.0418L15.9641 22.71Z" fill="#FBBC05"/>
<path fill-rule="evenodd" clip-rule="evenodd" d="M21 15.5795C22.3214 15.5795 23.5077 16.0336 24.4405 16.9255L27.0218 14.3441C25.4632 12.8918 23.4259 12 21 12C17.4818 12 14.4382 14.0168 12.9573 16.9582L15.9641 19.29C16.6718 17.1627 18.6559 15.5795 21 15.5795Z" fill="#EA4335"/>
<path d="M60.3087 15.262V16.2H68.2187V15.262H60.3087ZM58.8807 20.694V21.646H70.3187V20.694H58.8807ZM63.9907 21.324V27.106H65.1527V21.324H63.9907ZM67.6727 15.262V16.354C67.6727 17.628 67.6727 19.098 67.1827 21.142L68.3307 21.296C68.8067 19.154 68.8067 17.67 68.8067 16.354V15.262H67.6727ZM73.2156 14.968V15.906H81.3636V14.968H73.2156ZM71.7596 19.14V20.092H83.2256V19.14H71.7596ZM80.6076 14.968V15.78C80.6076 16.676 80.6076 17.768 80.2716 19.308L81.4056 19.434C81.7416 17.866 81.7416 16.69 81.7416 15.78V14.968H80.6076ZM73.1036 21.338V22.276H80.6356V23.662H73.1316V26.322H74.2936V24.558H81.7836V21.338H73.1036ZM73.1316 26.014V26.952H82.1056V26.014H73.1316ZM84.6385 24.572V25.538H96.1045V24.572H84.6385ZM89.7625 21.856V24.978H90.9245V21.856H89.7625ZM86.0245 15.374V16.312H93.5425V18.272H86.0665V21.744H87.2145V19.21H94.6905V15.374H86.0245ZM86.0665 21.254V22.206H94.9845V21.254H86.0665ZM105.904 17.95V18.888H108.718V17.95H105.904ZM105.806 21.128V22.066H108.69V21.128H105.806ZM110.636 14.436V27.092H111.756V14.436H110.636ZM108.102 14.758V26.448H109.194V14.758H108.102ZM105.274 16.032V16.242C105.274 19.224 103.944 21.744 100.99 23.536L101.662 24.362C105.064 22.332 106.394 19.35 106.394 16.032H105.274ZM101.55 16.032V16.984H105.736V16.032H101.55ZM113.869 20.778V21.73H125.349V20.778H113.869ZM119.007 18.86V21.212H120.155V18.86H119.007ZM118.993 14.632V15.192C118.993 16.886 116.823 18.286 114.555 18.594L115.003 19.518C117.579 19.098 120.001 17.474 120.001 15.192V14.632H118.993ZM119.175 14.632V15.192C119.175 17.474 121.611 19.084 124.173 19.518L124.607 18.594C122.353 18.286 120.169 16.886 120.169 15.192V14.632H119.175ZM115.143 22.962V23.9H122.731V27.092H123.893V22.962H115.143ZM135.33 14.436V27.092H136.492V14.436H135.33ZM136.212 19.63V20.61H138.564V19.63H136.212ZM126.692 16.452V17.404H134.154V16.452H126.692ZM130.472 18.454C128.694 18.454 127.392 19.658 127.392 21.366C127.392 23.074 128.694 24.278 130.472 24.278C132.264 24.278 133.552 23.074 133.552 21.366C133.552 19.658 132.264 18.454 130.472 18.454ZM130.472 19.42C131.62 19.42 132.446 20.218 132.446 21.366C132.446 22.5 131.62 23.312 130.472 23.312C129.324 23.312 128.498 22.5 128.498 21.366C128.498 20.218 129.324 19.42 130.472 19.42ZM129.87 14.59V16.886H131.032V14.59H129.87ZM148.852 14.436V27.092H150.014V14.436H148.852ZM145.142 15.794V15.99C145.142 19.35 143.448 22.038 139.794 23.802L140.41 24.74C144.638 22.668 146.29 19.462 146.29 15.794H145.142ZM140.368 15.794V16.746H145.646V15.794H140.368Z" fill="white"/>
</svg>
