<?xml version="1.0" encoding="UTF-8"?><svg id="_이어_2" xmlns="http://www.w3.org/2000/svg" xmlns:xlink="http://www.w3.org/1999/xlink" viewBox="0 0 36.74 31.16"><defs><style>.cls-1{fill:#b8a88e;}.cls-2{clip-path:url(#clippath);}.cls-3{fill:none;}</style><clipPath id="clippath"><rect class="cls-3" width="36.74" height="31.16"/></clipPath></defs><g id="_이어_1-2"><g class="cls-2"><g id="_룹_164" transform="translate(0 0)"><path id="_스_911" class="cls-1" d="M25.76,31.16H10.99c-.66,0-1.2-.54-1.2-1.2h0v-7.38c0-4.74,3.84-8.58,8.58-8.58,4.74,0,8.58,3.84,8.58,8.58v7.39c0,.66-.53,1.19-1.19,1.19"/><path id="_스_912" class="cls-1" d="M24.5,6.13c0,3.39-2.74,6.13-6.13,6.13s-6.13-2.74-6.13-6.13S14.99,0,18.37,0h0c3.39,0,6.13,2.74,6.13,6.13h0"/><path id="_스_913" class="cls-1" d="M9.75,14.46c-.91-.34-1.87-.49-2.84-.45C2.98,14.27-.06,17.57,0,21.51v5.92c0,.56,.45,1.01,1,1.01H6.49c.51,0,.92-.41,.92-.92v-4.75c0-2.64,.93-5.19,2.63-7.21,.25-.3,.21-.74-.09-.99-.06-.05-.12-.09-.19-.11"/><path id="_스_914" class="cls-1" d="M10.31,2.98c-2.28-1.71-5.51-1.24-7.22,1.04-1.71,2.28-1.24,5.51,1.04,7.22,2.09,1.57,5.03,1.32,6.83-.58,.31-.33,.4-.81,.22-1.22-.74-1.66-.89-3.52-.44-5.28,.1-.44-.06-.9-.43-1.17"/><path id="_스_915" class="cls-1" d="M26.99,14.46c.91-.34,1.87-.49,2.84-.45,3.94,.26,6.98,3.56,6.92,7.51v5.92c0,.56-.45,1.01-1.01,1.01h-5.49c-.51,0-.92-.41-.92-.92v-4.75c0-2.64-.93-5.19-2.63-7.21-.25-.3-.21-.74,.09-.99,.06-.05,.12-.09,.19-.11"/><path id="_스_916" class="cls-1" d="M26.44,2.98c2.28-1.71,5.51-1.24,7.22,1.04,1.71,2.28,1.24,5.51-1.04,7.22-2.09,1.57-5.03,1.32-6.83-.58-.31-.33-.4-.81-.22-1.22,.74-1.66,.89-3.52,.44-5.28-.1-.44,.06-.9,.43-1.17"/></g></g></g></svg>