<svg width="366" height="90" viewBox="0 0 366 90" fill="none" xmlns="http://www.w3.org/2000/svg">
<path fill-rule="evenodd" clip-rule="evenodd" d="M12 0H354C360.628 0 366 5.37255 366 12V78C366 84.6274 360.628 90 354 90H12C5.37251 90 0 84.6274 0 78V12C0 5.37255 5.37251 0 12 0Z" fill="#FEE500"/>
<path fill-rule="evenodd" clip-rule="evenodd" d="M46 27.9699C36.0585 27.9699 28.0001 34.2254 28.0001 41.9429C28.0001 46.7405 31.1169 50.9732 35.863 53.4889L33.8659 60.8188C33.6895 61.4683 34.4269 61.9837 34.9931 61.6083L43.7467 55.8026C44.4855 55.8742 45.2362 55.9158 46 55.9158C55.9411 55.9158 64 49.6593 64 41.9429C64 34.2254 55.9411 27.9699 46 27.9699Z" fill="black" fill-opacity="0.9"/>
<path d="M98.88 41.2C99.48 41.2 100.1 41.19 100.74 41.17C101.38 41.15 102 41.13 102.6 41.11C103.22 41.09 103.79 41.07 104.31 41.05C104.85 41.03 105.3 41.01 105.66 40.99C105.78 40.99 105.94 40.98 106.14 40.96C106.36 40.94 106.59 40.93 106.83 40.93C107.07 40.91 107.31 40.89 107.55 40.87C107.81 40.85 108.03 40.82 108.21 40.78C108.71 39.38 109.04 37.91 109.2 36.37C109.24 36.07 109.2 35.87 109.08 35.77C108.96 35.65 108.76 35.59 108.48 35.59H99.33C99.09 35.59 98.97 35.46 98.97 35.2V34.15C98.97 33.91 99.09 33.79 99.33 33.79H109.05C109.99 33.79 110.61 33.97 110.91 34.33C111.21 34.67 111.34 35.21 111.3 35.95C111.2 37.67 110.86 39.35 110.28 40.99C109.7 42.61 108.89 44.16 107.85 45.64C106.83 47.1 105.59 48.46 104.13 49.72C102.69 50.98 101.05 52.1 99.21 53.08C98.95 53.22 98.76 53.19 98.64 52.99L97.98 51.94C97.84 51.7 97.88 51.53 98.1 51.43C100.28 50.29 102.14 48.98 103.68 47.5C105.24 46.02 106.47 44.4 107.37 42.64C107.09 42.68 106.81 42.71 106.53 42.73C106.25 42.73 106.02 42.73 105.84 42.73C105.36 42.75 104.82 42.77 104.22 42.79C103.64 42.81 103.04 42.83 102.42 42.85C101.82 42.87 101.21 42.89 100.59 42.91C99.99 42.93 99.42 42.94 98.88 42.94C98.62 42.94 98.49 42.82 98.49 42.58V41.56C98.49 41.32 98.62 41.2 98.88 41.2ZM119.1 58.78C119.1 59.06 118.96 59.2 118.68 59.2H117.45C117.17 59.2 117.03 59.06 117.03 58.78V31.96C117.03 31.68 117.17 31.54 117.45 31.54H118.68C118.96 31.54 119.1 31.68 119.1 31.96V42.55H123.24C123.36 42.55 123.46 42.59 123.54 42.67C123.64 42.73 123.69 42.82 123.69 42.94V43.96C123.69 44.06 123.64 44.15 123.54 44.23C123.46 44.31 123.36 44.35 123.24 44.35H119.1V58.78ZM126.793 41.2C127.393 41.2 128.013 41.19 128.653 41.17C129.293 41.15 129.913 41.13 130.513 41.11C131.133 41.09 131.703 41.07 132.223 41.05C132.763 41.03 133.213 41.01 133.573 40.99C133.693 40.99 133.853 40.98 134.053 40.96C134.273 40.94 134.503 40.93 134.743 40.93C134.983 40.91 135.223 40.89 135.463 40.87C135.723 40.85 135.943 40.82 136.123 40.78C136.623 39.38 136.953 37.91 137.113 36.37C137.153 36.07 137.113 35.87 136.993 35.77C136.873 35.65 136.673 35.59 136.393 35.59H127.243C127.003 35.59 126.883 35.46 126.883 35.2V34.15C126.883 33.91 127.003 33.79 127.243 33.79H136.963C137.903 33.79 138.523 33.97 138.823 34.33C139.123 34.67 139.253 35.21 139.213 35.95C139.113 37.67 138.773 39.35 138.193 40.99C137.613 42.61 136.803 44.16 135.763 45.64C134.743 47.1 133.503 48.46 132.043 49.72C130.603 50.98 128.963 52.1 127.123 53.08C126.863 53.22 126.673 53.19 126.553 52.99L125.893 51.94C125.753 51.7 125.793 51.53 126.013 51.43C128.193 50.29 130.053 48.98 131.593 47.5C133.153 46.02 134.383 44.4 135.283 42.64C135.003 42.68 134.723 42.71 134.443 42.73C134.163 42.73 133.933 42.73 133.753 42.73C133.273 42.75 132.733 42.77 132.133 42.79C131.553 42.81 130.953 42.83 130.333 42.85C129.733 42.87 129.123 42.89 128.503 42.91C127.903 42.93 127.333 42.94 126.793 42.94C126.533 42.94 126.403 42.82 126.403 42.58V41.56C126.403 41.32 126.533 41.2 126.793 41.2ZM147.013 58.78C147.013 59.06 146.873 59.2 146.593 59.2H145.363C145.083 59.2 144.943 59.06 144.943 58.78V31.96C144.943 31.68 145.083 31.54 145.363 31.54H146.593C146.873 31.54 147.013 31.68 147.013 31.96V42.55H151.153C151.273 42.55 151.373 42.59 151.453 42.67C151.553 42.73 151.603 42.82 151.603 42.94V43.96C151.603 44.06 151.553 44.15 151.453 44.23C151.373 44.31 151.273 44.35 151.153 44.35H147.013V58.78ZM178.676 52.66C178.776 52.66 178.876 52.7 178.976 52.78C179.076 52.84 179.126 52.93 179.126 53.05V54.07C179.126 54.17 179.076 54.26 178.976 54.34C178.876 54.42 178.776 54.46 178.676 54.46H153.176C153.056 54.46 152.946 54.42 152.846 54.34C152.766 54.26 152.726 54.17 152.726 54.07V53.05C152.726 52.93 152.766 52.84 152.846 52.78C152.946 52.7 153.056 52.66 153.176 52.66H164.816V46.42C163.836 46.34 162.836 46.16 161.816 45.88C160.816 45.6 159.896 45.19 159.056 44.65C158.236 44.11 157.566 43.44 157.046 42.64C156.526 41.84 156.266 40.88 156.266 39.76C156.266 38.54 156.566 37.51 157.166 36.67C157.786 35.81 158.566 35.12 159.506 34.6C160.466 34.08 161.506 33.7 162.626 33.46C163.766 33.22 164.846 33.1 165.866 33.1C166.906 33.1 167.996 33.22 169.136 33.46C170.276 33.7 171.306 34.08 172.226 34.6C173.166 35.12 173.936 35.81 174.536 36.67C175.156 37.51 175.466 38.54 175.466 39.76C175.466 40.88 175.206 41.85 174.686 42.67C174.166 43.47 173.496 44.14 172.676 44.68C171.856 45.2 170.936 45.61 169.916 45.91C168.896 46.19 167.886 46.36 166.886 46.42V52.66H178.676ZM165.866 34.99C165.166 34.99 164.386 35.06 163.526 35.2C162.686 35.34 161.886 35.59 161.126 35.95C160.386 36.31 159.756 36.8 159.236 37.42C158.736 38.04 158.486 38.83 158.486 39.79C158.486 40.75 158.736 41.54 159.236 42.16C159.756 42.78 160.386 43.27 161.126 43.63C161.886 43.97 162.686 44.21 163.526 44.35C164.386 44.49 165.166 44.56 165.866 44.56C166.546 44.56 167.306 44.49 168.146 44.35C169.006 44.21 169.806 43.97 170.546 43.63C171.306 43.27 171.946 42.78 172.466 42.16C172.986 41.54 173.246 40.75 173.246 39.79C173.246 38.83 172.986 38.04 172.466 37.42C171.946 36.8 171.306 36.31 170.546 35.95C169.806 35.59 169.006 35.34 168.146 35.2C167.306 35.06 166.546 34.99 165.866 34.99ZM192.729 52.66V47.44H186.729C185.789 47.44 185.169 47.27 184.869 46.93C184.589 46.57 184.449 45.97 184.449 45.13V41.38C184.449 40.52 184.619 39.95 184.959 39.67C185.319 39.39 185.949 39.25 186.849 39.25H200.379C200.659 39.25 200.829 39.21 200.889 39.13C200.969 39.05 201.009 38.86 201.009 38.56V35.44C201.009 35.14 200.969 34.95 200.889 34.87C200.829 34.79 200.659 34.75 200.379 34.75H184.869C184.769 34.75 184.669 34.72 184.569 34.66C184.489 34.6 184.449 34.52 184.449 34.42V33.28C184.449 33.18 184.489 33.1 184.569 33.04C184.669 32.98 184.769 32.95 184.869 32.95H200.709C201.189 32.95 201.579 32.99 201.879 33.07C202.179 33.13 202.419 33.24 202.599 33.4C202.779 33.56 202.899 33.79 202.959 34.09C203.039 34.37 203.079 34.72 203.079 35.14V38.89C203.079 39.75 202.899 40.32 202.539 40.6C202.199 40.88 201.579 41.02 200.679 41.02H187.149C186.869 41.02 186.689 41.06 186.609 41.14C186.549 41.22 186.519 41.41 186.519 41.71V44.95C186.519 45.23 186.559 45.42 186.639 45.52C186.719 45.6 186.899 45.64 187.179 45.64H203.289C203.389 45.64 203.479 45.67 203.559 45.73C203.659 45.79 203.709 45.87 203.709 45.97V47.08C203.709 47.18 203.659 47.27 203.559 47.35C203.479 47.41 203.399 47.44 203.319 47.44H194.799V52.66H206.589C206.689 52.66 206.789 52.7 206.889 52.78C206.989 52.84 207.039 52.93 207.039 53.05V54.07C207.039 54.17 206.989 54.26 206.889 54.34C206.789 54.42 206.689 54.46 206.589 54.46H181.089C180.969 54.46 180.859 54.42 180.759 54.34C180.679 54.26 180.639 54.17 180.639 54.07V53.05C180.639 52.93 180.679 52.84 180.759 52.78C180.859 52.7 180.969 52.66 181.089 52.66H192.729ZM229.53 36.25C229.49 36.73 229.43 37.2 229.35 37.66C229.29 38.1 229.21 38.55 229.11 39.01H233.61V32.47C233.61 32.19 233.75 32.05 234.03 32.05H235.17C235.45 32.05 235.59 32.19 235.59 32.47V57.64C235.59 57.92 235.45 58.06 235.17 58.06H234.03C233.75 58.06 233.61 57.92 233.61 57.64V47.65H227.88C227.62 47.65 227.49 47.53 227.49 47.29V46.24C227.49 46 227.62 45.88 227.88 45.88H233.61V40.78H228.6C227.14 45.28 224 49.13 219.18 52.33C218.92 52.51 218.72 52.5 218.58 52.3L217.92 51.37C217.82 51.25 217.79 51.13 217.83 51.01C217.87 50.89 217.94 50.8 218.04 50.74C219.38 49.9 220.59 48.97 221.67 47.95C222.77 46.91 223.72 45.81 224.52 44.65C225.32 43.47 225.96 42.24 226.44 40.96C226.92 39.66 227.22 38.33 227.34 36.97C227.38 36.47 227.34 36.15 227.22 36.01C227.1 35.85 226.84 35.77 226.44 35.77H219.15C218.91 35.77 218.79 35.65 218.79 35.41V34.33C218.79 34.23 218.83 34.15 218.91 34.09C218.99 34.01 219.08 33.97 219.18 33.97H227.16C228.06 33.97 228.69 34.16 229.05 34.54C229.43 34.92 229.59 35.49 229.53 36.25ZM240.9 58.78C240.9 59.06 240.76 59.2 240.48 59.2H239.34C239.06 59.2 238.92 59.06 238.92 58.78V31.96C238.92 31.68 239.06 31.54 239.34 31.54H240.48C240.76 31.54 240.9 31.68 240.9 31.96V58.78ZM270.523 45.25C270.623 45.25 270.723 45.29 270.823 45.37C270.923 45.43 270.973 45.52 270.973 45.64V46.66C270.973 46.76 270.923 46.85 270.823 46.93C270.723 47.01 270.623 47.05 270.523 47.05H245.023C244.903 47.05 244.793 47.01 244.693 46.93C244.613 46.85 244.573 46.76 244.573 46.66V45.61C244.573 45.49 244.613 45.4 244.693 45.34C244.793 45.28 244.903 45.25 245.023 45.25H256.633V41.14C256.633 40.86 256.773 40.72 257.053 40.72H258.283C258.563 40.72 258.703 40.86 258.703 41.14V45.25H270.523ZM258.823 32.17C258.783 32.33 258.743 32.5 258.703 32.68C258.683 32.84 258.653 33 258.613 33.16C258.713 33.46 258.833 33.72 258.973 33.94C259.333 34.58 259.823 35.21 260.443 35.83C261.063 36.45 261.773 37.03 262.573 37.57C263.393 38.09 264.283 38.56 265.243 38.98C266.223 39.38 267.243 39.7 268.303 39.94C268.423 39.98 268.493 40.05 268.513 40.15C268.533 40.25 268.523 40.35 268.483 40.45L267.973 41.47C267.933 41.57 267.873 41.65 267.793 41.71C267.733 41.75 267.603 41.75 267.403 41.71C266.343 41.45 265.323 41.1 264.343 40.66C263.363 40.22 262.453 39.72 261.613 39.16C260.773 38.6 260.003 37.99 259.303 37.33C258.623 36.67 258.063 35.99 257.623 35.29C256.743 36.73 255.473 38.04 253.813 39.22C252.173 40.4 250.253 41.31 248.053 41.95C247.733 42.03 247.533 41.98 247.453 41.8L247.003 40.72C246.963 40.62 246.953 40.51 246.973 40.39C247.013 40.27 247.103 40.19 247.243 40.15C248.583 39.79 249.813 39.32 250.933 38.74C252.053 38.14 253.023 37.48 253.843 36.76C254.683 36.02 255.353 35.24 255.853 34.42C256.353 33.6 256.653 32.78 256.753 31.96C256.793 31.68 256.923 31.56 257.143 31.6L258.493 31.75C258.733 31.79 258.843 31.93 258.823 32.17ZM248.113 50.74C248.113 50.62 248.163 50.53 248.263 50.47C248.363 50.41 248.463 50.38 248.563 50.38H264.493C265.433 50.38 266.043 50.56 266.323 50.92C266.623 51.26 266.773 51.84 266.773 52.66V59.08C266.773 59.36 266.633 59.5 266.353 59.5H265.123C264.843 59.5 264.703 59.36 264.703 59.08V52.81C264.703 52.53 264.653 52.36 264.553 52.3C264.473 52.22 264.293 52.18 264.013 52.18H248.563C248.463 52.18 248.363 52.15 248.263 52.09C248.163 52.01 248.113 51.92 248.113 51.82V50.74ZM288.206 47.77C288.206 48.59 288.036 49.35 287.696 50.05C287.376 50.75 286.926 51.37 286.346 51.91C285.766 52.43 285.076 52.84 284.276 53.14C283.476 53.44 282.616 53.59 281.696 53.59C280.756 53.59 279.886 53.44 279.086 53.14C278.306 52.84 277.626 52.43 277.046 51.91C276.466 51.39 276.006 50.78 275.666 50.08C275.346 49.36 275.186 48.59 275.186 47.77C275.186 46.93 275.346 46.16 275.666 45.46C276.006 44.74 276.466 44.12 277.046 43.6C277.626 43.08 278.306 42.67 279.086 42.37C279.886 42.07 280.756 41.92 281.696 41.92C282.616 41.92 283.476 42.08 284.276 42.4C285.076 42.7 285.766 43.11 286.346 43.63C286.926 44.15 287.376 44.77 287.696 45.49C288.036 46.21 288.206 46.97 288.206 47.77ZM294.686 58.78C294.686 59.06 294.546 59.2 294.266 59.2H293.036C292.756 59.2 292.616 59.06 292.616 58.78V31.96C292.616 31.68 292.756 31.54 293.036 31.54H294.266C294.546 31.54 294.686 31.68 294.686 31.96V43.03H298.826C298.946 43.03 299.046 43.07 299.126 43.15C299.226 43.21 299.276 43.3 299.276 43.42V44.44C299.276 44.54 299.226 44.63 299.126 44.71C299.046 44.79 298.946 44.83 298.826 44.83H294.686V58.78ZM286.166 47.77C286.166 47.19 286.056 46.65 285.836 46.15C285.616 45.65 285.306 45.22 284.906 44.86C284.506 44.48 284.026 44.19 283.466 43.99C282.926 43.77 282.336 43.66 281.696 43.66C281.056 43.66 280.456 43.77 279.896 43.99C279.356 44.19 278.886 44.48 278.486 44.86C278.086 45.22 277.766 45.65 277.526 46.15C277.306 46.65 277.196 47.19 277.196 47.77C277.196 48.35 277.306 48.89 277.526 49.39C277.766 49.87 278.086 50.3 278.486 50.68C278.886 51.04 279.356 51.33 279.896 51.55C280.456 51.75 281.056 51.85 281.696 51.85C282.336 51.85 282.926 51.75 283.466 51.55C284.026 51.33 284.506 51.04 284.906 50.68C285.306 50.32 285.616 49.89 285.836 49.39C286.056 48.89 286.166 48.35 286.166 47.77ZM290.456 39.4C290.456 39.66 290.306 39.79 290.006 39.79H273.446C273.346 39.79 273.246 39.75 273.146 39.67C273.066 39.59 273.026 39.49 273.026 39.37V38.41C273.026 38.29 273.066 38.19 273.146 38.11C273.246 38.03 273.346 37.99 273.446 37.99H290.006C290.306 37.99 290.456 38.12 290.456 38.38V39.4ZM286.076 34.3C286.076 34.58 285.926 34.72 285.626 34.72H277.406C277.306 34.72 277.206 34.69 277.106 34.63C277.026 34.55 276.986 34.45 276.986 34.33V33.31C276.986 33.19 277.026 33.09 277.106 33.01C277.186 32.93 277.276 32.89 277.376 32.89H285.626C285.926 32.89 286.076 33.03 286.076 33.31V34.3ZM323.648 58.78C323.648 59.06 323.508 59.2 323.228 59.2H321.998C321.718 59.2 321.578 59.06 321.578 58.78V31.96C321.578 31.68 321.718 31.54 321.998 31.54H323.228C323.508 31.54 323.648 31.68 323.648 31.96V58.78ZM315.608 35.95C315.508 37.67 315.168 39.36 314.588 41.02C314.008 42.68 313.198 44.27 312.158 45.79C311.138 47.29 309.898 48.69 308.438 49.99C306.998 51.27 305.358 52.4 303.518 53.38C303.258 53.52 303.068 53.49 302.948 53.29L302.288 52.24C302.148 52 302.188 51.83 302.408 51.73C304.108 50.85 305.608 49.85 306.908 48.73C308.228 47.59 309.348 46.36 310.268 45.04C311.208 43.72 311.948 42.33 312.488 40.87C313.028 39.41 313.368 37.91 313.508 36.37C313.548 36.07 313.508 35.87 313.388 35.77C313.268 35.65 313.068 35.59 312.788 35.59H303.248C303.008 35.59 302.888 35.46 302.888 35.2V34.15C302.888 33.91 303.008 33.79 303.248 33.79H313.358C314.298 33.79 314.918 33.97 315.218 34.33C315.518 34.67 315.648 35.21 315.608 35.95Z" fill="#191919"/>
</svg>
