<svg width="188" height="19" viewBox="0 0 188 19" fill="none" xmlns="http://www.w3.org/2000/svg">
<path d="M0.45 14.689V16H16.011V14.689H0.45ZM7.404 10.243V15.05H8.981V10.243H7.404ZM2.255 2.434V10.528H14.111V2.434H2.255ZM12.591 3.707V9.255H3.794V3.707H12.591ZM20.0565 7.393V8.685H31.5325V7.393H20.0565ZM17.9095 10.908V12.219H33.4895V10.908H17.9095ZM24.8635 11.63V18.128H26.4215V11.63H24.8635ZM20.0565 2.016V8.02H21.6525V3.308H31.3045V2.016H20.0565ZM40.974 2.244C38.295 2.244 36.357 3.897 36.357 6.291C36.357 8.704 38.295 10.357 40.974 10.357C43.653 10.357 45.572 8.704 45.572 6.291C45.572 3.897 43.653 2.244 40.974 2.244ZM40.974 3.612C42.741 3.612 44.033 4.695 44.033 6.291C44.033 7.887 42.741 8.989 40.974 8.989C39.188 8.989 37.896 7.887 37.896 6.291C37.896 4.695 39.188 3.612 40.974 3.612ZM47.814 0.990003V18.204H49.391V0.990003H47.814ZM35.711 14.442C38.77 14.442 42.969 14.423 46.826 13.682L46.693 12.523C42.95 13.112 38.618 13.131 35.483 13.131L35.711 14.442ZM58.2103 11.402V12.713H73.7713V11.402H58.2103ZM65.2023 11.782V18.204H66.7603V11.782H65.2023ZM60.2813 8.362V9.654H72.0423V8.362H60.2813ZM60.2813 1.807V8.742H61.8393V3.08H71.8523V1.807H60.2813ZM61.3833 5.056V6.291H71.4343V5.056H61.3833ZM79.9448 3.46V6.253C79.9448 9.16 77.8738 12.428 75.4228 13.625L76.3348 14.879C79.0138 13.511 81.1988 9.825 81.1988 6.253V3.46H79.9448ZM80.2298 3.46V6.253C80.2298 9.654 82.3008 13.112 85.0178 14.461L85.9108 13.207C83.4218 12.029 81.4838 8.97 81.4838 6.253V3.46H80.2298ZM76.0308 2.757V4.087H85.2838V2.757H76.0308ZM87.3168 1.009V18.185H88.9128V1.009H87.3168ZM88.5328 7.944V9.274H91.7248V7.944H88.5328ZM110.994 0.990003V18.204H112.571V0.990003H110.994ZM99.4991 2.453V14.062H107.593V2.453H106.016V6.994H101.057V2.453H99.4991ZM101.057 8.248H106.016V12.77H101.057V8.248ZM124.578 6.823V8.115H129.366V6.823H124.578ZM120.436 2.491V5.55C120.436 8.742 118.498 12.048 115.971 13.302L116.978 14.556C119.695 13.093 121.728 9.407 121.728 5.55V2.491H120.436ZM120.74 2.491V5.55C120.74 9.312 122.735 12.846 125.509 14.252L126.44 12.979C123.951 11.801 122.013 8.685 122.013 5.55V2.491H120.74ZM128.587 0.990003V18.204H130.145V0.990003H128.587ZM138.831 14.689V16H154.392V14.689H138.831ZM145.785 10.243V15.05H147.362V10.243H145.785ZM140.636 2.434V10.528H152.492V2.434H140.636ZM150.972 3.707V9.255H142.175V3.707H150.972ZM156.29 11.402V12.713H171.851V11.402H156.29ZM163.282 11.782V18.204H164.84V11.782H163.282ZM158.361 8.362V9.654H170.122V8.362H158.361ZM158.361 1.807V8.742H159.919V3.08H169.932V1.807H158.361ZM159.463 5.056V6.291H169.514V5.056H159.463ZM186.252 0.990003V18.204H187.829V0.990003H186.252ZM174.757 2.453V14.062H182.851V2.453H181.274V6.994H176.315V2.453H174.757ZM176.315 8.248H181.274V12.77H176.315V8.248Z" fill="#B8A88E"/>
</svg>
