<?xml version="1.0" encoding="UTF-8"?><svg id="_이어_2" xmlns="http://www.w3.org/2000/svg" xmlns:xlink="http://www.w3.org/1999/xlink" viewBox="0 0 33.69 31"><defs><style>.cls-1{fill:#b8a88e;}.cls-2{clip-path:url(#clippath);}.cls-3{fill:none;}</style><clipPath id="clippath"><rect class="cls-3" width="33.69" height="31"/></clipPath></defs><g id="_이어_1-2"><g id="_룹_328" transform="translate(0 0)"><g class="cls-2"><g id="_룹_170"><path id="_스_920" class="cls-1" d="M24.69,0c-4.97,0-9,4.03-9,9,0,3.33,1.84,6.38,4.77,7.94l-1.87,3.24c-.89-.32-1.87-.24-2.69,.21l-3.12-2.73c.67-1.81-.26-3.83-2.08-4.49-1.81-.67-3.83,.26-4.49,2.08-.44,1.2-.19,2.54,.64,3.5l-2.91,5.28c-.15-.02-.29-.04-.44-.05-1.95-.01-3.53,1.56-3.54,3.5-.01,1.95,1.56,3.53,3.5,3.54,1.95,.01,3.53-1.56,3.54-3.5,0-.98-.39-1.91-1.11-2.58l2.79-5.06c.96,.24,1.97,.06,2.79-.5l2.91,2.55c-.87,1.72-.19,3.83,1.54,4.7s3.83,.19,4.7-1.54c.59-1.17,.48-2.57-.28-3.63l2.16-3.75c4.82,1.23,9.72-1.68,10.94-6.5,1.23-4.82-1.68-9.72-6.5-10.94-.74-.19-1.5-.28-2.26-.28m3.24,10.91c.01,.53-.12,1.05-.39,1.51-.27,.43-.66,.76-1.12,.96-.23,.1-.46,.17-.71,.22v.87c0,.15-.12,.27-.27,.27h-1.2c-.15,0-.27-.12-.27-.27v-.8c-.2-.03-.41-.06-.61-.11-.41-.1-.81-.24-1.18-.43-.29-.13-.54-.32-.74-.56l.8-1.44c.33,.29,.7,.52,1.11,.68,.42,.16,.86,.24,1.3,.24,.4,.02,.8-.08,1.13-.29,.26-.19,.41-.49,.4-.82h0c.01-.22-.05-.42-.18-.59-.12-.15-.29-.26-.47-.32-.24-.08-.48-.14-.73-.18,0,0-.02,0-.03,0-.01,0-.02,0-.03,0-.01,0-.03,0-.04,0h-.04c-.49-.08-.98-.21-1.45-.38-.39-.15-.72-.42-.95-.76-.29-.47-.43-1.01-.4-1.56h0c-.02-.55,.11-1.08,.37-1.54,.25-.43,.63-.76,1.08-.97,.21-.09,.42-.16,.65-.21v-.88c0-.15,.12-.27,.27-.27h1.19c.15,0,.27,.12,.27,.27h0v.83c.08,.01,.16,.02,.24,.04,.32,.08,.63,.19,.93,.33,.3,.15,.59,.32,.86,.52l-.73,1.47c-.3-.24-.63-.43-.99-.57-.31-.13-.65-.2-.99-.2-.37-.02-.73,.07-1.05,.26-.24,.17-.39,.45-.37,.74h0c-.01,.24,.06,.47,.21,.65,.14,.16,.32,.28,.51,.34,.28,.09,.56,.17,.84,.22h.09l.06,.02c.46,.09,.91,.23,1.34,.42,.37,.17,.68,.44,.9,.79,.26,.45,.39,.96,.36,1.48v.02Z"/></g></g></g></g></svg>