<?xml version="1.0" encoding="UTF-8"?><svg id="_이어_2" xmlns="http://www.w3.org/2000/svg" xmlns:xlink="http://www.w3.org/1999/xlink" viewBox="0 0 31 31"><defs><style>.cls-1{fill:#777;}.cls-2{clip-path:url(#clippath);}.cls-3{fill:none;}</style><clipPath id="clippath"><rect class="cls-3" width="31" height="31"/></clipPath></defs><g id="_이어_1-2"><g id="_룹_310" transform="translate(-0.327 -0.327)"><g class="cls-2"><g id="_룹_168" transform="translate(0.327 0.327)"><path id="_스_919" class="cls-1" d="M31,16.4v-2.14c0-.54-.32-1.02-.82-1.23l-3.32-1.38c-.34-.15-.6-.42-.74-.76v-.02c-.15-.33-.15-.7-.02-1.03l1.35-3.36c.2-.5,.08-1.06-.29-1.44l-1.52-1.52c-.38-.38-.95-.5-1.45-.29l-3.3,1.36c-.34,.13-.72,.13-1.05-.02l-.04-.02c-.33-.13-.6-.39-.75-.72l-1.42-3.32c-.21-.49-.69-.81-1.23-.81h-2.14c-.54,0-1.02,.32-1.23,.82l-1.37,3.28c-.15,.34-.42,.6-.76,.74l-.08,.03c-.33,.14-.7,.15-1.03,.02l-3.31-1.33c-.5-.2-1.06-.08-1.44,.29l-1.51,1.51c-.38,.38-.5,.95-.29,1.45l1.34,3.26c.13,.34,.13,.71-.02,1.05-.01,.04-.03,.07-.05,.11-.13,.34-.39,.61-.72,.75l-3.27,1.4c-.49,.21-.81,.69-.81,1.22v2.14c0,.54,.32,1.02,.82,1.23l3.25,1.35c.34,.14,.6,.42,.73,.76,.02,.04,.03,.07,.05,.11,.14,.33,.15,.7,.02,1.04l-1.32,3.3c-.2,.5-.08,1.06,.29,1.44l1.51,1.51c.38,.38,.95,.5,1.45,.29l3.28-1.35c.33-.13,.7-.13,1.03,0l.08,.03c.34,.13,.62,.39,.77,.73l1.4,3.29c.21,.49,.69,.81,1.23,.81h2.14c.54,0,1.02-.32,1.23-.82l1.38-3.31c.14-.33,.41-.6,.75-.73l.04-.02c.33-.14,.7-.15,1.03-.02l3.36,1.34c.5,.2,1.06,.08,1.44-.29l1.51-1.51c.38-.38,.5-.95,.29-1.45l-1.37-3.33c-.13-.33-.13-.7,0-1.03v-.02c.14-.34,.4-.62,.74-.76l3.34-1.42c.49-.21,.81-.69,.81-1.23m-15.68,4.83c-3.24,0-5.87-2.63-5.87-5.87,0-3.24,2.63-5.87,5.87-5.87,3.24,0,5.87,2.63,5.87,5.87h0c0,3.24-2.63,5.87-5.87,5.87"/></g></g></g></g></svg>