<svg width="58" height="58" viewBox="0 0 58 58" fill="none" xmlns="http://www.w3.org/2000/svg">
<path d="M10.024 0.963989H0V10.988H10.024V0.963989Z" fill="#1E023C"/>
<path d="M20.048 0.963989H10.024V10.988H20.048V0.963989Z" fill="#41305D"/>
<path d="M10.024 10.988H0V21.012H10.024V10.988Z" fill="#41305D"/>
<path d="M20.048 10.988H10.024V21.012H20.048V10.988Z" fill="#5A268B"/>
<path d="M30.071 10.988H20.047V21.012H30.071V10.988Z" fill="#5831A3"/>
<path d="M20.048 21.011H10.024V31.035H20.048V21.011Z" fill="#5831A3"/>
<path d="M30.071 21.011H20.047V31.035H30.071V21.011Z" fill="#7146B7"/>
<path d="M30.071 31.035H20.047V41.059H30.071V31.035Z" fill="#9469CC"/>
<path d="M40.095 31.035H30.071V41.059H40.095V31.035Z" fill="#CBAFE8"/>
<path d="M40.095 21.011H30.071V31.035H40.095V21.011Z" fill="#9469CC"/>
<path d="M50.119 31.035H40.095V41.059H50.119V31.035Z" fill="#DECEF2"/>
<path d="M40.095 41.059H30.071V51.083H40.095V41.059Z" fill="#DECEF2"/>
<path d="M50.119 41.059H40.095V51.083H50.119V41.059Z" fill="#DECEF2"/>
<path d="M30.073 10.988L40.094 21.012H30.073V10.988Z" fill="#7146B7"/>
<path d="M40.09 21.011L50.119 31.035H40.09V21.011Z" fill="#CBAFE8"/>
<path d="M30.07 51.082L20.046 41.059H30.07V51.082Z" fill="#CBAFE8"/>
<path d="M20.048 41.058L10.024 31.034H20.048V41.058Z" fill="#7146B7"/>
<path d="M10.024 31.034L-0.00100708 21.01H10.024V31.034Z" fill="#5A268B"/>
<path d="M46.3828 50.6948L53.468 57.78L57.0106 54.2374L49.9254 47.1522L46.3828 50.6948Z" fill="#DECEF2"/>
</svg>
