<svg width="63" height="57" viewBox="0 0 63 57" fill="none" xmlns="http://www.w3.org/2000/svg">
<path d="M46.3177 0.375299L38.297 8.39601L46.3177 16.4167L54.3384 8.39601L46.3177 0.375299Z" fill="#1E023C"/>
<path d="M38.2967 8.3953L30.276 16.416L38.2967 24.4367L46.3174 16.416L38.2967 8.3953Z" fill="#41305D"/>
<path d="M54.3377 8.3953L46.317 16.416L54.3377 24.4367L62.3584 16.416L54.3377 8.3953Z" fill="#41305D"/>
<path d="M46.3177 16.4153L38.297 24.436L46.3177 32.4567L54.3384 24.436L46.3177 16.4153Z" fill="#5A268B"/>
<path d="M38.2977 24.4363L30.277 32.457L38.2977 40.4777L46.3184 32.457L38.2977 24.4363Z" fill="#5831A3"/>
<path d="M54.3377 24.4363L46.317 32.457L54.3377 40.4777L62.3584 32.457L54.3377 24.4363Z" fill="#5831A3"/>
<path d="M46.3177 32.4563L38.297 40.477L46.3177 48.4977L54.3384 40.477L46.3177 32.4563Z" fill="#7146B7"/>
<path d="M30.2767 32.4563L22.256 40.477L30.2767 48.4977L38.2974 40.477L30.2767 32.4563Z" fill="#9469CC"/>
<path d="M38.2977 40.4763L30.277 48.497L38.2977 56.5177L46.3184 48.497L38.2977 40.4763Z" fill="#9469CC"/>
<path d="M22.256 56.518H38.297L30.277 48.498L22.256 56.518Z" fill="#CBAFE8"/>
<path d="M38.297 24.437H22.256L30.276 32.457L38.297 24.437Z" fill="#7146B7"/>
<path d="M62.357 32.456V16.416L54.337 24.436L62.357 32.456Z" fill="#5A268B"/>
<path d="M22.2567 40.4763L14.236 48.497L22.2567 56.5177L30.2774 48.497L22.2567 40.4763Z" fill="#CBAFE8"/>
<path d="M22.2567 24.4363L14.236 32.457L22.2567 40.4777L30.2774 32.457L22.2567 24.4363Z" fill="#CBAFE8"/>
<path d="M14.2302 32.4618L6.21301 40.479L14.2302 48.4962L22.2474 40.479L14.2302 32.4618Z" fill="#DECEF2"/>
<path d="M11.896 37.548H0.558014V43.217H11.896V37.548Z" fill="#DECEF2"/>
</svg>
