<svg width="104" height="160" viewBox="0 0 104 160" fill="none" xmlns="http://www.w3.org/2000/svg">
<path d="M48.75 0.106003L8.75 35.691L14.75 85.691L0.75 111.691L10.25 149.191L30.25 159.191H64.793L86.25 147.191L103.25 75.191L101.25 46.191L81.25 31.191L68.25 36.191L67.25 27.191L48.75 0.106003Z" fill="#CBAFE8"/>
<path d="M49.533 2.192L66.75 27.192L68.75 48.192L55.75 68.192L49.533 2.192Z" fill="#5A268B"/>
<path d="M81.75 31.192L60.75 39.192L56.75 65.192L59.75 145.192C59.75 145.192 73.75 156.192 73.75 153.192C73.75 150.192 81.75 64.192 81.75 64.192V31.192Z" fill="#41305D"/>
<path d="M81.75 31.192L76.75 52.192L81.75 64.67L102.75 75.192L101.75 43.192L81.75 31.192Z" fill="#5A268B"/>
<path d="M0.75 112.192L18.75 124.192L29.75 109.192L15.75 96.192L14.75 86.192L0.75 112.192Z" fill="#41305D"/>
<path d="M48.75 0.606003L19.75 29.191L28.75 109.191L63.75 120.191L48.75 0.606003Z" fill="#1E023C"/>
<path d="M56.75 92.192L73.75 154.192C73.75 154.192 63.75 160.192 64.75 159.192C65.75 158.192 53.75 106.192 53.75 106.192L56.75 92.192Z" fill="#E0D3F2"/>
<path d="M56.75 92.192L20.75 114.192L16.75 125.192L28.75 132.192L54.523 105.931L56.75 92.192Z" fill="#5A268B"/>
<path d="M54.523 105.757L27.75 131.192L33.75 159.192H64.75L54.523 105.757Z" fill="#1E023C"/>
</svg>
