<svg width="84" height="84" viewBox="0 0 84 84" fill="none" xmlns="http://www.w3.org/2000/svg">
<path d="M55.23 0.847556L45.683 5.91838L50.7538 15.4654L60.3008 10.3946L55.23 0.847556Z" fill="#38A9D3"/>
<path d="M45.6839 5.91792L36.1369 10.9887L41.2077 20.5357L50.7547 15.4649L45.6839 5.91792Z" fill="#55BAD8"/>
<path d="M60.3008 10.3946L50.7538 15.4654L55.8247 25.0124L65.3717 19.9415L60.3008 10.3946Z" fill="#55BAD8"/>
<path d="M50.7547 15.4649L41.2077 20.5357L46.2786 30.0827L55.8256 25.0119L50.7547 15.4649Z" fill="#77C6D8"/>
<path d="M41.2077 20.5357L31.6607 25.6066L36.7316 35.1536L46.2786 30.0827L41.2077 20.5357Z" fill="#9CD8E2"/>
<path d="M55.8256 25.0119L46.2786 30.0827L51.3494 39.6297L60.8964 34.5589L55.8256 25.0119Z" fill="#9CD8E2"/>
<path d="M46.2786 30.0827L36.7316 35.1536L41.8024 44.7006L51.3494 39.6297L46.2786 30.0827Z" fill="#BBE5EA"/>
<path d="M51.3489 39.6288L41.8019 44.6997L46.8728 54.2467L56.4198 49.1758L51.3489 39.6288Z" fill="#BAD8DB"/>
<path d="M41.8019 44.6997L32.2549 49.7705L37.3258 59.3175L46.8728 54.2467L41.8019 44.6997Z" fill="#DAF0F2"/>
<path d="M36.7316 35.1536L27.1846 40.2244L32.2554 49.7714L41.8024 44.7006L36.7316 35.1536Z" fill="#BAD8DB"/>
<path d="M32.2549 49.7705L22.7079 54.8413L27.7788 64.3883L37.3258 59.3175L32.2549 49.7705Z" fill="#EDF8F9"/>
<path d="M46.8727 54.2467L37.3258 59.3175L42.3966 68.8645L51.9436 63.7937L46.8727 54.2467Z" fill="#EDF8F9"/>
<path d="M37.3258 59.3175L27.7788 64.3883L32.8496 73.9353L42.3966 68.8645L37.3258 59.3175Z" fill="#EDF8F9"/>
<path d="M31.6607 25.6066L27.1818 40.2213L36.7297 35.15L31.6607 25.6066Z" fill="#BBE5EA"/>
<path d="M27.1846 40.2244L22.7098 54.8449L32.2568 49.774L27.1846 40.2244Z" fill="#DAF0F2"/>
<path d="M51.9436 63.7937L56.4197 49.1758L46.8727 54.2467L51.9436 63.7937Z" fill="#DAF0F2"/>
<path d="M56.4202 49.1767L60.8973 34.5584L51.3494 39.6297L56.4202 49.1767Z" fill="#BBE5EA"/>
<path d="M55.8256 25.0119L60.8978 34.5615L65.374 19.9437L55.8256 25.0119Z" fill="#77C6D8"/>
<path d="M31.0717 70.0803L27.9066 80.4167L33.0748 81.9993L36.2399 71.6629L31.0717 70.0803Z" fill="#EDF8F9"/>
</svg>
