<svg width="73" height="70" viewBox="0 0 73 70" fill="none" xmlns="http://www.w3.org/2000/svg">
<path d="M42.4988 5.36723L37.3966 14.9631L46.9925 20.0653L52.0947 10.4694L42.4988 5.36723Z" fill="#38A9D3"/>
<path d="M37.3965 14.9633L32.2943 24.5592L41.8901 29.6614L46.9923 20.0655L37.3965 14.9633Z" fill="#55BAD8"/>
<path d="M52.0949 10.4696L46.9926 20.0654L56.5885 25.1676L61.6907 15.5718L52.0949 10.4696Z" fill="#55BAD8"/>
<path d="M46.9925 20.0656L41.8903 29.6615L51.4862 34.7637L56.5884 25.1678L46.9925 20.0656Z" fill="#77C6D8"/>
<path d="M41.8902 29.6617L36.788 39.2576L46.3839 44.3598L51.4861 34.7639L41.8902 29.6617Z" fill="#9CD8E2"/>
<path d="M56.5884 25.1679L51.4864 34.7638L61.0824 39.8659L66.1844 30.2699L56.5884 25.1679Z" fill="#9CD8E2"/>
<path d="M51.4863 34.7641L46.3841 44.3599L55.9799 49.4621L61.0822 39.8663L51.4863 34.7641Z" fill="#BBE5EA"/>
<path d="M36.7888 39.2575L31.6866 48.8534L41.2825 53.9556L46.3847 44.3597L36.7888 39.2575Z" fill="#BAD8DB"/>
<path d="M46.3849 44.3598L41.2827 53.9557L50.8786 59.0579L55.9808 49.462L46.3849 44.3598Z" fill="#BAD8DB"/>
<path d="M36.1804 63.5518L50.8788 59.058L41.2789 53.9569L36.1804 63.5518Z" fill="#DAF0F2"/>
<path d="M41.8903 29.6615L27.1919 34.1553L36.7851 39.2585L41.8903 29.6615Z" fill="#BBE5EA"/>
<path d="M56.5876 25.1639L66.1837 30.2662L61.6911 15.5717L56.5876 25.1639Z" fill="#77C6D8"/>
<path d="M31.6865 48.8536L26.5843 58.4495L36.1802 63.5517L41.2824 53.9558L31.6865 48.8536Z" fill="#DAF0F2"/>
<path d="M27.1928 34.1552L22.0905 43.751L31.6864 48.8533L36.7886 39.2574L27.1928 34.1552Z" fill="#DAF0F2"/>
<path d="M22.0904 43.7513L16.9882 53.3471L26.5841 58.4494L31.6863 48.8535L22.0904 43.7513Z" fill="#EDF8F9"/>
<path d="M21.3756 49.0673L10.9825 52.2448L12.5713 57.4414L22.9644 54.2639L21.3756 49.0673Z" fill="#EDF8F9"/>
</svg>
