<svg>
  <g xmlns="http://www.w3.org/2000/svg" id="그룹 242" width="current"
  height="current" viewBox="0 0 24 24">
    <path
      id="패스 1030"
      className="s35"
      d="m249.8 2243.3l13.9 78-19.4 41-11.9 2.1-38.4-19.4-44-73.3 9.8-36.1 18.6-21.1 34.3-2.3z"
    />
    <path id="패스 1031" className="s33" d="m150 2271.7l26.2 12.4 42.7 67.2-24.9-6.3z" />
    <path id="패스 1032" className="s49" d="m176.2 2284.1l45.1-7.7 9.8 9.9 10.8 53.6-23 11.4z" />
    <path id="패스 1033" className="s34" d="m159.8 2235.6l27.2 6.4-10.8 42.1-26.2-12.4z" />
    <path id="패스 1034" className="s33" d="m235.7 2266l-4.6 20.3-9.8-9.9 2.7-18.1-13-19 38.8 4z" />
    <path id="패스 1035" className="s8" d="m187 2242l24-2.7 13 19-2.7 18.1-45.1 7.7z" />
    <path id="패스 1036" className="s34" d="m231.1 2286.3l4.6-20.3 19.5 62.1-10.9 34.2-2.4-22.4z" />
    <path id="패스 1037" className="s50" d="m211 2239.3l-24 2.7-8.6-27.5 34.3-2.3z" />
    <path id="패스 1038" className="s50" d="m241.9 2339.9l2.4 22.4-11.9 2.1-38.4-19.4 24.9 6.3z" />
  </g>
</svg>
