<svg width="78" height="76" viewBox="0 0 78 76" fill="none" xmlns="http://www.w3.org/2000/svg">
<path d="M28.08 11.1808L31.4384 21.5169L41.7745 18.1585L38.4161 7.82238L28.08 11.1808Z" fill="#38A9D3"/>
<path d="M31.4385 21.5171L34.7969 31.8532L45.133 28.4948L41.7746 18.1587L31.4385 21.5171Z" fill="#55BAD8"/>
<path d="M17.7437 14.5392L21.1021 24.8753L31.4382 21.5169L28.0798 11.1808L17.7437 14.5392Z" fill="#55BAD8"/>
<path d="M21.1022 24.8755L24.4606 35.2116L34.7967 31.8532L31.4383 21.5171L21.1022 24.8755Z" fill="#77C6D8"/>
<path d="M24.4606 35.2118L27.819 45.5479L38.1551 42.1895L34.7967 31.8535L24.4606 35.2118Z" fill="#9CD8E2"/>
<path d="M10.7661 28.234L14.1243 38.5701L24.4604 35.2119L21.1022 24.8757L10.7661 28.234Z" fill="#9CD8E2"/>
<path d="M14.1243 38.5703L17.4827 48.9064L27.8188 45.548L24.4604 35.2119L14.1243 38.5703Z" fill="#BBE5EA"/>
<path d="M27.8182 45.5477L31.1766 55.8838L41.5127 52.5254L38.1543 42.1893L27.8182 45.5477Z" fill="#BAD8DB"/>
<path d="M17.4828 48.9066L20.8412 59.2427L31.1773 55.8843L27.8189 45.5482L17.4828 48.9066Z" fill="#BAD8DB"/>
<path d="M34.5351 66.2201L20.8403 59.2422L31.1766 55.8838L34.5351 66.2201Z" fill="#DAF0F2"/>
<path d="M34.796 31.8527L48.4907 38.8305L38.1544 42.189L34.796 31.8527Z" fill="#BBE5EA"/>
<path d="M21.1021 24.8753L10.7658 28.2338L17.7436 14.539L21.1021 24.8753Z" fill="#77C6D8"/>
<path d="M31.1767 55.884L34.5351 66.2201L44.8712 62.8617L41.5128 52.5256L31.1767 55.884Z" fill="#DAF0F2"/>
<path d="M38.1545 42.1892L41.5129 52.5253L51.849 49.1669L48.4906 38.8308L38.1545 42.1892Z" fill="#DAF0F2"/>
<path d="M41.513 52.5255L44.8714 62.8616L55.2075 59.5032L51.8491 49.1671L41.513 52.5255Z" fill="#EDF8F9"/>
<path d="M49.1631 59.3683L58.8466 64.3022L61.3135 59.4605L51.6301 54.5265L49.1631 59.3683Z" fill="#EDF8F9"/>
</svg>
