<?xml version="1.0" encoding="UTF-8"?><svg id="_이어_2" xmlns="http://www.w3.org/2000/svg" viewBox="0 0 113.7 152.23"><defs><style>.cls-1{fill:#38a9d3;}.cls-2{fill:#fff;}.cls-3{fill:#3ecae1;}.cls-4{fill:#7dfaff;}.cls-5{fill:none;}.cls-6{fill:#a9fcff;}.cls-7{fill:#42def4;}</style></defs><g id="_이어_1-2"><g><polygon class="cls-6" points="28.39 2.29 9.82 23.42 0 59.53 44 132.75 82.36 152.23 94.26 150.13 113.7 109.08 99.81 31.1 62.72 0 28.39 2.29"/><polygon class="cls-1" points="0 59.53 26.19 71.92 68.94 139.07 44 132.75 0 59.53"/><polygon class="cls-3" points="26.19 71.92 71.26 64.2 81.07 74.13 91.92 127.65 68.94 139.07 26.19 71.92"/><polygon class="cls-7" points="26.19 71.92 36.96 29.81 9.82 23.42 0 59.53 26.19 71.92"/><polygon class="cls-1" points="99.81 31.1 61.01 27.11 74 46.1 71.26 64.2 81.07 74.13 85.68 53.84 99.81 31.1"/><polygon class="cls-2" points="36.96 29.81 61.01 27.11 74 46.1 71.26 64.2 26.19 71.92 36.96 29.81"/><polygon class="cls-7" points="91.92 127.65 94.26 150.13 105.19 115.87 85.68 53.84 81.07 74.13 91.92 127.65"/><polygon class="cls-4" points="28.39 2.29 62.72 0 61.01 27.11 36.96 29.81 28.39 2.29"/><polygon class="cls-5" points="62.72 0 61.01 27.11 99.81 31.1 62.72 0"/><polygon class="cls-4" points="91.92 127.65 68.94 139.07 44 132.75 82.36 152.23 94.26 150.13 91.92 127.65"/></g></g></svg>