<svg width="88" height="87" viewBox="0 0 88 87" fill="none" xmlns="http://www.w3.org/2000/svg">
<path d="M38.7112 10.2859L37.0435 22.1461L48.9036 23.8138L50.5713 11.9536L38.7112 10.2859Z" fill="#F40B0B"/>
<path d="M37.0442 22.1462L35.3765 34.0063L47.2366 35.674L48.9043 23.8139L37.0442 22.1462Z" fill="#F23838"/>
<path d="M50.5723 11.9538L48.9044 23.8139L60.7645 25.4818L62.4324 13.6217L50.5723 11.9538Z" fill="#F23838"/>
<path d="M48.9034 23.8156L47.2359 35.6739L59.0943 37.3414L60.7617 25.483L48.9034 23.8156Z" fill="#E88080"/>
<path d="M47.2366 35.6741L45.5689 47.5342L57.4291 49.2019L59.0968 37.3418L47.2366 35.6741Z" fill="#E59E9E"/>
<path d="M60.7647 25.4816L59.0968 37.3417L70.9569 39.0096L72.6248 27.1495L60.7647 25.4816Z" fill="#E59E9E"/>
<path d="M59.0961 37.3417L57.4284 49.2018L69.2885 50.8695L70.9562 39.0094L59.0961 37.3417Z" fill="#E2B0B0"/>
<path d="M45.5682 47.5341L43.9005 59.3943L55.7607 61.062L57.4284 49.2018L45.5682 47.5341Z" fill="#E5C6C6"/>
<path d="M57.4291 49.2019L55.7614 61.0621L67.6215 62.7298L69.2892 50.8696L57.4291 49.2019Z" fill="#E2B0B0"/>
<path d="M54.0936 72.9229L67.6215 62.7305L55.7606 61.0627L54.0936 72.9229Z" fill="#E5C6C6"/>
<path d="M47.2359 35.6739L33.7081 45.8664L45.5683 47.5334L47.2359 35.6739Z" fill="#E2B0B0"/>
<path d="M60.7644 25.4823L72.6253 27.1501L62.4322 13.6214L60.7644 25.4823Z" fill="#E88080"/>
<path d="M43.9012 59.3944L42.2335 71.2545L54.0937 72.9222L55.7614 61.0621L43.9012 59.3944Z" fill="#EFDCDC"/>
<path d="M33.7088 45.8665L32.0411 57.7267L43.9012 59.3944L45.5689 47.5342L33.7088 45.8665Z" fill="#E5C6C6"/>
<path d="M32.0404 57.7266L30.3727 69.5867L42.2328 71.2544L43.9005 59.3943L32.0404 57.7266Z" fill="#EFDCDC"/>
<path d="M33.3043 63.5012L23.7387 70.7084L27.3422 75.4912L36.9079 68.284L33.3043 63.5012Z" fill="#EFDCDC"/>
</svg>
