<svg width="88" height="89" viewBox="0 0 88 89" fill="none" xmlns="http://www.w3.org/2000/svg">
<path d="M12.0524 47.7525L24.0172 47.3347L23.5993 35.37L11.6346 35.7878L12.0524 47.7525Z" fill="#F40B0B"/>
<path d="M24.0171 47.334L35.9818 46.9162L35.564 34.9515L23.5993 35.3693L24.0171 47.334Z" fill="#F23838"/>
<path d="M12.4702 59.7167L24.4349 59.2987L24.0169 47.334L12.0522 47.752L12.4702 59.7167Z" fill="#F23838"/>
<path d="M24.435 59.2994L36.3997 58.8816L35.9819 46.9169L24.0172 47.3347L24.435 59.2994Z" fill="#E88080"/>
<path d="M36.3997 58.8809L48.3644 58.4631L47.9466 46.4984L35.9819 46.9162L36.3997 58.8809Z" fill="#E59E9E"/>
<path d="M24.8528 71.2637L36.8175 70.8456L36.3994 58.8809L24.4347 59.299L24.8528 71.2637Z" fill="#E59E9E"/>
<path d="M36.8168 70.8457L48.7815 70.4278L48.3637 58.4631L36.399 58.881L36.8168 70.8457Z" fill="#E2B0B0"/>
<path d="M48.3637 58.4631L60.3284 58.0453L59.9106 46.0806L47.9459 46.4984L48.3637 58.4631Z" fill="#E5C6C6"/>
<path d="M48.7822 70.4278L60.7469 70.01L60.3291 58.0453L48.3644 58.4631L48.7822 70.4278Z" fill="#E2B0B0"/>
<path d="M72.2939 57.6275L60.747 70.01L60.3291 58.0446L72.2939 57.6275Z" fill="#E5C6C6"/>
<path d="M35.9818 46.9162L47.5288 34.5336L47.9459 46.4984L35.9818 46.9162Z" fill="#E2B0B0"/>
<path d="M24.4349 59.2987L24.8528 71.2642L12.4702 59.7173L24.4349 59.2987Z" fill="#E88080"/>
<path d="M60.3292 58.0453L72.2939 57.6275L71.8761 45.6627L59.9113 46.0806L60.3292 58.0453Z" fill="#EFDCDC"/>
<path d="M47.9466 46.4984L59.9113 46.0805L59.4935 34.1158L47.5288 34.5336L47.9466 46.4984Z" fill="#E5C6C6"/>
<path d="M59.9114 46.0812L71.8761 45.6634L71.4583 33.6987L59.4935 34.1165L59.9114 46.0812Z" fill="#EFDCDC"/>
<path d="M69.4792 40.0578L77.6441 31.302L73.2662 27.2196L65.1013 35.9754L69.4792 40.0578Z" fill="#EFDCDC"/>
</svg>
