<svg width="66" height="72" viewBox="0 0 66 72" fill="none" xmlns="http://www.w3.org/2000/svg">
<path d="M64.0121 48.7468L54.7081 41.2126L47.1739 50.5166L56.4778 58.0508L64.0121 48.7468Z" fill="#F40B0B"/>
<path d="M54.7076 41.2131L45.4036 33.6789L37.8694 42.9829L47.1734 50.5171L54.7076 41.2131Z" fill="#F23838"/>
<path d="M56.4772 58.0516L47.1734 50.5172L39.639 59.821L48.9429 67.3554L56.4772 58.0516Z" fill="#F23838"/>
<path d="M47.1738 50.5166L37.8698 42.9824L30.3356 52.2864L39.6396 59.8206L47.1738 50.5166Z" fill="#E88080"/>
<path d="M37.8694 42.9829L28.5654 35.4487L21.0311 44.7527L30.3351 52.2869L37.8694 42.9829Z" fill="#E59E9E"/>
<path d="M39.639 59.8213L30.3351 52.287L22.8008 61.5908L32.1046 69.1252L39.639 59.8213Z" fill="#E59E9E"/>
<path d="M30.3356 52.2864L21.0316 44.7522L13.4974 54.0562L22.8013 61.5904L30.3356 52.2864Z" fill="#E2B0B0"/>
<path d="M28.5658 35.4481L19.2618 27.9139L11.7276 37.2179L21.0316 44.7521L28.5658 35.4481Z" fill="#E5C6C6"/>
<path d="M21.0311 44.7527L11.7271 37.2185L4.1929 46.5225L13.4969 54.0567L21.0311 44.7527Z" fill="#E2B0B0"/>
<path d="M2.42256 29.6838L4.19233 46.522L11.727 37.2175L2.42256 29.6838Z" fill="#E5C6C6"/>
<path d="M37.8698 42.9824L36.1001 26.1441L28.5664 35.4486L37.8698 42.9824Z" fill="#E2B0B0"/>
<path d="M39.6386 59.8208L32.1039 69.1253L48.9432 67.3554L39.6386 59.8208Z" fill="#E88080"/>
<path d="M19.2613 27.9144L9.95735 20.3802L2.42313 29.6842L11.7271 37.2184L19.2613 27.9144Z" fill="#EFDCDC"/>
<path d="M36.0996 26.1447L26.7956 18.6104L19.2614 27.9144L28.5654 35.4487L36.0996 26.1447Z" fill="#E5C6C6"/>
<path d="M26.796 18.6099L17.492 11.0757L9.95781 20.3797L19.2618 27.9139L26.796 18.6099Z" fill="#EFDCDC"/>
<path d="M21.1974 16.7203L19.9459 4.81387L13.9927 5.43958L15.2441 17.346L21.1974 16.7203Z" fill="#EFDCDC"/>
</svg>
