<svg width="154" height="190" viewBox="0 0 154 190" fill="none" xmlns="http://www.w3.org/2000/svg">
<path d="M116.047 168.14L140.878 133.022L126.952 81.5038L91.6366 39.6472L36.2167 22.9563L20.0705 77.5979L34.3943 127.846L70.6803 170.925L116.047 168.14Z" fill="#EDB7B7"/>
<path d="M104.313 148.073L121.118 126.378L110.697 90.0913L87.4129 65.0785L53.6397 55.9171L42.6772 86.8819L52.2028 122.257L75.601 149.306L104.313 148.073Z" fill="#EA5050"/>
<path d="M126.151 79.4935L90.2112 38.3303L90.2065 66.339L113.722 93.3236L126.151 79.4935Z" fill="#F40B0B"/>
<path d="M54.1828 56.8623L35.4409 22.7747L20.021 75.6462L43.6337 89.8519L54.1828 56.8623Z" fill="#EFD8D8"/>
<path d="M75.6014 149.307L50.5185 123.182L34.46 128.86L69.9802 167.104L75.6014 149.307Z" fill="#F40B0B"/>
<path d="M139.955 130.028L123.042 126.022L106.062 148.664L115.484 165.801L139.955 130.028Z" fill="#EFD8D8"/>
</svg>
